<?xml version="1.0" standalone="no"?>
<!DOCTYPE svg PUBLIC "-//W3C//DTD SVG 20010904//EN"
 "http://www.w3.org/TR/2001/REC-SVG-20010904/DTD/svg10.dtd">
<svg version="1.0" xmlns="http://www.w3.org/2000/svg"
 width="435.000000pt" height="435.000000pt" viewBox="0 0 435.000000 435.000000"
 preserveAspectRatio="xMidYMid meet">
<metadata>
Created by potrace 1.11, written by Peter Selinger 2001-2013
</metadata>
<g transform="translate(0.000000,435.000000) scale(0.100000,-0.100000)"
fill="#000000" stroke="none">
<path d="M1925 4305 c-106 -14 -240 -40 -291 -56 -17 -5 -40 -11 -50 -13 -39
-8 -197 -66 -277 -102 -119 -54 -199 -98 -312 -172 -429 -284 -744 -719 -884
-1225 -11 -40 -23 -88 -26 -107 -3 -19 -8 -42 -11 -51 -5 -17 -6 -25 -25 -169
-12 -96 -15 -308 -4 -420 32 -353 152 -698 341 -981 220 -330 492 -572 839
-746 117 -59 375 -154 450 -166 17 -3 53 -10 80 -17 221 -51 589 -51 843 -1
652 130 1219 571 1510 1173 23 48 42 91 42 95 0 5 7 21 15 36 30 58 106 318
119 412 9 58 15 96 22 130 10 53 11 377 2 470 -66 644 -423 1225 -972 1584
-102 66 -315 171 -436 215 -109 39 -263 79 -365 95 -38 6 -86 13 -105 17 -71
12 -406 11 -505 -1z m470 -298 c11 -2 43 -8 70 -11 117 -16 312 -73 427 -123
l57 -25 -63 -63 c-74 -75 -130 -95 -187 -68 l-27 12 11 -36 c6 -20 27 -52 46
-72 l34 -36 12 30 c7 16 11 34 8 41 -2 6 13 24 34 40 21 16 64 55 96 87 l57
58 63 -33 c507 -265 891 -803 962 -1348 4 -30 9 -64 12 -75 8 -40 10 -312 2
-375 -4 -36 -10 -89 -14 -118 -17 -152 -99 -397 -191 -570 -280 -531 -780
-880 -1384 -967 -95 -13 -416 -14 -490 -1 -150 27 -285 60 -365 90 -5 2 -20 7
-32 11 -48 15 -212 93 -278 132 -315 185 -572 462 -731 789 -51 106 -127 315
-139 386 -4 18 -10 51 -15 73 -5 22 -12 67 -15 100 -4 33 -8 76 -11 95 -6 49
-5 267 1 318 3 23 7 60 10 82 19 167 102 428 188 590 203 387 506 669 917 854
121 54 375 119 516 132 38 3 71 8 73 10 5 5 320 -4 346 -9z"/>
<path d="M2015 3936 c9 -41 36 -77 98 -127 117 -97 137 -123 137 -179 0 -58
-43 -109 -91 -110 -15 0 -51 16 -80 36 -30 20 -69 43 -87 51 -34 14 -132 28
-132 18 0 -2 26 -18 58 -34 127 -65 149 -126 74 -206 -37 -39 -75 -53 -96 -36
-7 6 -23 38 -35 70 -23 64 -55 111 -67 99 -4 -4 -1 -14 6 -23 18 -21 7 -105
-21 -161 -13 -24 -26 -44 -31 -44 -4 0 -8 19 -9 43 -3 159 -78 248 -278 326
l-50 21 33 -44 c38 -50 53 -105 61 -221 7 -95 40 -173 88 -208 18 -13 59 -31
92 -41 33 -10 69 -24 80 -31 19 -11 29 -7 100 41 44 30 87 60 95 67 208 169
420 385 420 429 0 29 -37 82 -74 105 -17 10 -70 34 -118 53 -86 35 -126 63
-161 110 l-18 25 6 -29z"/>
<path d="M2538 3735 c-56 -19 -92 -49 -182 -153 -150 -173 -319 -325 -484
-435 -92 -62 -272 -157 -296 -157 -8 0 -18 -5 -21 -10 -7 -11 80 -2 133 14 9
3 33 7 52 10 63 10 292 76 425 123 280 100 475 205 540 293 13 18 29 58 36 88
11 54 11 56 -15 75 -29 21 -76 95 -76 120 0 31 -62 50 -112 32z"/>
<path d="M1062 3290 c-337 -336 -503 -795 -459 -1274 11 -117 67 -357 98 -416
4 -8 27 -57 50 -108 23 -51 45 -91 49 -90 3 2 33 32 65 68 176 193 366 333
594 434 154 69 314 118 431 132 30 3 58 8 63 11 7 4 3 -80 -8 -157 -2 -19 -7
-64 -10 -100 -3 -36 -8 -76 -10 -90 -2 -14 -6 -56 -10 -95 -3 -38 -8 -86 -10
-105 -13 -116 -16 -140 -20 -190 -3 -30 -7 -71 -10 -90 -12 -104 -20 -180 -30
-295 -4 -38 -8 -81 -10 -95 -3 -14 -7 -54 -10 -90 -3 -36 -7 -73 -8 -84 -2
-14 41 -46 178 -131 200 -126 174 -120 266 -63 20 13 72 45 115 72 44 26 98
60 122 75 l42 26 -5 55 c-3 30 -8 75 -10 100 -2 25 -7 70 -10 100 -3 30 -8 71
-10 90 -3 39 -13 133 -20 195 -3 22 -7 67 -10 100 -4 33 -8 76 -10 95 -2 19
-9 82 -15 140 -6 58 -13 121 -15 140 -2 19 -7 62 -10 95 -3 33 -7 76 -10 95
-2 19 -7 66 -10 105 -4 38 -8 72 -10 75 -22 36 162 9 335 -50 183 -61 367
-159 525 -278 69 -53 285 -266 285 -281 0 -29 23 -4 53 57 77 153 127 315 151
488 15 105 18 330 5 398 -4 23 -9 59 -12 81 -33 241 -165 531 -335 737 -84
101 -193 206 -199 190 -22 -59 -109 -219 -148 -271 -63 -85 -164 -185 -247
-244 -126 -90 -308 -167 -435 -184 -37 -4 -43 -2 -44 13 -4 49 -9 91 -13 114
-2 14 -5 32 -5 40 -1 13 -21 16 -130 15 -71 0 -132 -2 -134 -5 -5 -5 -16 -105
-17 -152 0 -24 -4 -28 -29 -28 -47 0 -200 48 -290 91 -73 34 -192 110 -227
144 -6 5 -26 24 -45 40 -54 48 -133 144 -181 220 -43 68 -59 100 -92 178 -8
20 -17 37 -20 37 -2 0 -41 -36 -84 -80z m97 -534 c155 -162 367 -297 572 -361
136 -43 128 -35 80 -83 -60 -59 -123 -101 -189 -124 -71 -25 -88 -28 -184 -28
-86 -1 -183 28 -257 74 -97 61 -190 188 -219 298 -26 96 -7 259 40 351 l19 38
41 -53 c23 -29 67 -79 97 -112z m2235 21 c19 -73 13 -207 -13 -281 -56 -158
-187 -279 -348 -321 -127 -34 -280 -12 -388 56 -49 31 -135 107 -135 120 0 4
39 19 88 34 271 83 531 267 707 498 l29 39 23 -46 c13 -25 30 -70 37 -99z"/>
</g>
</svg>
